<?xml version="1.0" encoding="UTF-8"?>
<svg width="40px" height="40px" viewBox="0 0 40 40" version="1.1" xmlns="http://www.w3.org/2000/svg" xmlns:xlink="http://www.w3.org/1999/xlink">
    <title>Atom/ Icon/ Functional icon/ Digital components/ Profile 24px</title>
    <g id="Atom/-Icon/-Functional-icon/-Digital-components/-Profile-24px" stroke="none" stroke-width="1" fill="none" fill-rule="evenodd">
        <g id="Group" transform="translate(8, 8)" fill="#4E4C4A" fill-rule="nonzero">
            <path d="M12,12.855 C14.325,12.855 16.2,10.98 16.2,8.655 C16.2,6.33 14.325,4.455 12,4.455 C9.675,4.455 7.8,6.33 7.8,8.655 C7.8,10.98 9.675,12.855 12,12.855 Z M12,5.955 C13.485,5.955 14.7,7.17 14.7,8.655 C14.7,10.14 13.485,11.355 12,11.355 C10.515,11.355 9.3,10.14 9.3,8.655 C9.3,7.17 10.515,5.955 12,5.955 Z" id="Shape"></path>
            <path d="M14.25,23.775 C14.415,23.745 14.565,23.7 14.73,23.67 C14.925,23.625 15.12,23.58 15.315,23.52 C15.495,23.475 15.66,23.415 15.825,23.355 C15.99,23.295 16.155,23.235 16.32,23.175 C16.5,23.1 16.68,23.04 16.86,22.95 C16.995,22.89 17.13,22.83 17.25,22.755 C17.445,22.665 17.64,22.56 17.835,22.455 C17.88,22.425 17.925,22.395 17.985,22.365 C21.57,20.295 24,16.425 24,11.985 C24,5.37 18.63,0 12,0 C5.37,0 0,5.37 0,12 C0,16.44 2.415,20.31 6.015,22.38 C6.06,22.41 6.105,22.44 6.165,22.47 C6.36,22.575 6.555,22.665 6.75,22.77 C6.885,22.83 7.005,22.905 7.14,22.965 C7.32,23.04 7.5,23.115 7.68,23.19 C7.845,23.25 8.01,23.31 8.175,23.37 C8.34,23.43 8.52,23.475 8.685,23.535 C8.88,23.595 9.075,23.64 9.27,23.685 C9.42,23.715 9.585,23.76 9.75,23.79 C9.99,23.835 10.23,23.865 10.47,23.895 C10.605,23.91 10.725,23.94 10.86,23.94 C11.235,23.97 11.625,24 12,24 C12.375,24 12.765,23.985 13.14,23.94 C13.275,23.94 13.41,23.91 13.53,23.895 C13.77,23.865 14.01,23.835 14.235,23.79 L14.25,23.775 Z M6.045,20.58 L6.045,20.13 C6.045,17.685 8.04,15.69 10.485,15.69 L13.485,15.69 C15.93,15.69 17.925,17.685 17.925,20.13 L17.925,20.58 C16.17,21.795 14.13,22.44 11.985,22.44 C9.84,22.44 7.785,21.795 6.045,20.58 Z M1.485,12 C1.485,6.21 6.195,1.5 11.985,1.5 C17.775,1.5 22.485,6.21 22.485,12 C22.485,14.895 21.315,17.52 19.41,19.41 C19.05,16.44 16.545,14.13 13.485,14.13 L10.485,14.13 C7.41,14.13 4.92,16.44 4.56,19.41 C2.67,17.505 1.485,14.88 1.485,12 Z" id="Shape"></path>
        </g>
    </g>
</svg>