<?xml version="1.0" encoding="utf-8"?>
<!-- Generator: Adobe Illustrator 27.6.1, SVG Export Plug-In . SVG Version: 6.00 Build 0)  -->
<svg version="1.1" id="Layer_2_00000105414352527743508430000008333427930722816906_"
	 xmlns="http://www.w3.org/2000/svg" xmlns:xlink="http://www.w3.org/1999/xlink" x="0px" y="0px" viewBox="0 0 16 16"
	 style="enable-background:new 0 0 16 16;" xml:space="preserve">
<style type="text/css">
	.st0{clip-path:url(#SVGID_00000170993292064099790510000008132517752802932907_);}
	.st1{fill:#FFFFFF;}
	.st2{fill:#166734;}
</style>
<g id="Layer_1-2">
	<g>
		<defs>
			<circle id="SVGID_1_" cx="8" cy="8" r="8"/>
		</defs>
		<clipPath id="SVGID_00000132797598985722593900000006628665618320040352_">
			<use xlink:href="#SVGID_1_"  style="overflow:visible;"/>
		</clipPath>
		<g style="clip-path:url(#SVGID_00000132797598985722593900000006628665618320040352_);">
			<g id="FLAG">
				<g>
					<rect x="-4" class="st1" width="6" height="16"/>
					<rect x="-1" class="st2" width="18" height="16"/>
					<path class="st1" d="M12.2,10.1c-1.8,1.6-4.6,1.4-6.2-0.4S4.6,5.1,6.4,3.5l0.2-0.2C4.8,4,3.4,5.8,3.4,7.9
						c0,2.6,2.1,4.8,4.8,4.8c1.9,0,3.6-1.1,4.3-2.8L12.2,10.1L12.2,10.1L12.2,10.1z"/>
					<polygon class="st1" points="9.8,4.4 10.6,5.2 11.6,4.7 11.1,5.7 11.9,6.5 10.7,6.3 10.2,7.3 10.1,6.2 8.9,6 10,5.5 					"/>
				</g>
			</g>
		</g>
	</g>
</g>
</svg>
